<?xml version="1.0" standalone="no"?>
<!DOCTYPE svg PUBLIC "-//W3C//DTD SVG 20010904//EN"
 "http://www.w3.org/TR/2001/REC-SVG-20010904/DTD/svg10.dtd">
<svg version="1.0" xmlns="http://www.w3.org/2000/svg"
 width="256.000000pt" height="256.000000pt" viewBox="0 0 256.000000 256.000000"
 preserveAspectRatio="xMidYMid meet">

<g transform="translate(0.000000,256.000000) scale(0.100000,-0.100000)"
fill="#000000" stroke="none">
<path d="M240 2501 c-69 -22 -130 -73 -166 -141 -18 -33 -19 -80 -19 -1080 0
-1000 1 -1047 19 -1080 26 -49 74 -98 121 -123 39 -22 47 -22 613 -25 l572 -3
0 486 0 485 -150 0 -150 0 0 155 0 155 150 0 150 0 0 123 c0 224 49 359 174
482 120 118 245 164 444 165 l102 0 0 -154 0 -154 -117 -3 c-107 -4 -122 -7
-164 -31 -99 -58 -129 -129 -129 -304 l0 -124 200 0 200 0 -1 -22 c0 -13 -8
-81 -17 -153 l-17 -130 -183 -3 -182 -2 0 -486 0 -485 318 3 c303 3 319 4 357
25 47 25 95 74 121 123 18 33 19 80 19 1080 l0 1045 -22 40 c-25 47 -74 95
-123 121 -33 18 -82 19 -1065 21 -566 1 -1041 -2 -1055 -6z m2090 -116 c19
-12 43 -36 55 -55 20 -35 20 -47 20 -1050 0 -1003 0 -1015 -20 -1050 -12 -19
-36 -43 -55 -55 -32 -18 -55 -20 -287 -23 l-253 -3 0 385 0 386 177 2 178 3
26 215 c15 118 29 232 32 253 l5 37 -210 0 -210 0 3 79 c4 85 18 114 73 155
24 19 44 21 182 24 l154 3 0 255 0 254 -168 0 c-134 0 -184 -4 -244 -19 -200
-51 -355 -179 -444 -366 -43 -89 -64 -186 -64 -297 l0 -88 -155 0 -155 0 0
-255 0 -255 155 0 155 0 0 -385 0 -386 -507 3 c-490 3 -509 4 -543 23 -19 12
-43 36 -55 55 -20 34 -20 50 -23 1028 -2 673 1 1006 8 1033 6 21 21 50 33 64
48 56 17 55 1102 52 986 -2 1000 -2 1035 -22z"/>
</g>
</svg>
