<?xml version="1.0" standalone="no"?>
<!DOCTYPE svg PUBLIC "-//W3C//DTD SVG 20010904//EN"
 "http://www.w3.org/TR/2001/REC-SVG-20010904/DTD/svg10.dtd">
<svg version="1.0" xmlns="http://www.w3.org/2000/svg"
 width="486.000000pt" height="513.000000pt" viewBox="0 0 486.000000 513.000000"
 preserveAspectRatio="xMidYMid meet">

<g transform="translate(0.000000,513.000000) scale(0.100000,-0.100000)"
fill="#000000" stroke="none">
<path d="M1228 4889 c-498 -34 -939 -382 -1083 -855 l-25 -82 0 -1390 0 -1389
25 -79 c145 -446 535 -779 991 -844 56 -8 437 -10 1329 -8 l1250 4 95 26 c174
49 297 108 429 206 277 205 454 518 491 862 13 130 13 2335 0 2455 -65 560
-475 989 -1040 1087 -73 12 -2291 19 -2462 7z m2408 -270 c209 -29 397 -122
549 -273 119 -118 211 -275 257 -441 l23 -80 3 -1220 c2 -829 -1 -1242 -8
-1290 -45 -296 -250 -574 -525 -712 -85 -43 -205 -79 -310 -93 -66 -8 -405
-11 -1270 -8 l-1180 3 -95 27 c-175 48 -302 120 -429 242 -132 128 -220 276
-269 453 l-27 98 0 1235 0 1235 23 89 c30 121 70 210 135 309 62 92 191 222
282 282 105 69 254 125 390 145 83 12 2362 12 2451 -1z"/>
<path d="M3546 4050 c-212 -85 -224 -384 -21 -493 31 -17 57 -22 120 -22 96 0
142 21 202 89 45 51 63 101 63 176 0 29 -5 70 -12 92 -15 50 -79 123 -132 150
-59 30 -157 34 -220 8z"/>
<path d="M2265 3650 c-359 -57 -666 -275 -822 -585 -41 -80 -87 -214 -104
-300 -17 -87 -18 -319 0 -400 49 -234 153 -425 314 -582 98 -95 178 -150 302
-209 448 -213 996 -84 1310 309 82 102 165 268 202 402 26 92 28 114 28 280 0
166 -2 188 -28 280 -112 405 -426 704 -832 791 -86 19 -289 26 -370 14z m373
-289 c230 -67 433 -242 528 -457 183 -415 4 -894 -407 -1088 -105 -50 -177
-67 -310 -73 -293 -14 -556 116 -719 357 -189 278 -189 652 0 930 117 172 305
299 510 345 94 21 302 14 398 -14z"/>
</g>
</svg>
