<?xml version="1.0" standalone="no"?>
<!DOCTYPE svg PUBLIC "-//W3C//DTD SVG 20010904//EN"
 "http://www.w3.org/TR/2001/REC-SVG-20010904/DTD/svg10.dtd">
<svg version="1.0" xmlns="http://www.w3.org/2000/svg"
 width="512.000000pt" height="512.000000pt" viewBox="0 0 512.000000 512.000000"
 preserveAspectRatio="xMidYMid meet">

<g transform="translate(0.000000,512.000000) scale(0.100000,-0.100000)"
fill="#000000" stroke="none">
<path d="M4525 4079 c-290 -129 -292 -129 -397 -61 -242 158 -518 201 -768
120 -280 -90 -587 -373 -700 -645 -17 -41 -40 -112 -51 -157 -26 -104 -34
-120 -74 -142 -32 -17 -35 -16 -186 20 -446 108 -786 269 -1059 499 -121 102
-162 121 -260 121 -89 0 -154 -25 -213 -82 -71 -68 -82 -101 -82 -237 1 -141
21 -225 90 -372 l44 -93 -39 0 c-53 0 -89 -32 -100 -90 -21 -116 37 -344 126
-491 55 -91 173 -223 260 -290 l57 -44 -54 -12 c-75 -17 -107 -56 -100 -123 4
-31 25 -60 57 -75 33 -15 44 -14 241 24 239 47 258 56 258 135 0 56 -20 78
-110 123 -257 130 -424 302 -496 510 -10 29 -14 53 -8 53 5 0 50 -20 99 -45
106 -53 154 -58 197 -21 24 20 28 32 28 73 0 45 -6 55 -78 146 -171 218 -266
430 -267 594 0 69 17 97 65 109 41 10 72 -3 131 -57 273 -247 687 -444 1189
-565 61 -14 135 -26 165 -27 109 -2 211 55 266 149 14 24 36 87 50 141 44 180
129 322 272 453 181 167 359 250 535 250 143 0 191 -17 476 -166 70 -37 80
-39 160 -39 75 0 96 5 160 33 l73 32 -18 -27 c-10 -16 -46 -68 -81 -116 -35
-48 -68 -100 -74 -114 -21 -55 32 -133 91 -133 14 0 50 7 79 16 29 8 56 14 61
12 5 -2 -25 -50 -66 -108 -41 -58 -83 -127 -93 -155 -11 -30 -26 -117 -36
-215 -45 -443 -153 -796 -344 -1121 -344 -589 -851 -904 -1602 -995 -286 -35
-702 -18 -1039 42 -194 35 -199 37 -125 58 103 28 306 107 406 157 210 105
411 235 435 282 22 41 11 90 -27 121 -51 43 -80 36 -220 -55 -163 -105 -408
-227 -550 -273 -189 -60 -245 -69 -444 -70 -201 -1 -212 -4 -240 -66 -25 -56
-7 -111 50 -150 128 -88 537 -198 920 -247 201 -26 747 -26 920 0 687 103
1186 377 1531 839 295 396 476 873 529 1402 9 88 21 177 26 196 5 20 65 117
135 215 241 342 234 328 195 391 -30 49 -72 58 -154 35 -37 -11 -67 -17 -67
-14 0 3 38 58 84 122 126 175 136 191 136 223 0 60 -46 108 -103 108 -12 0
-134 -50 -272 -111z"/>
</g>
</svg>
